<?xml version='1.0' encoding='utf-8'?>
<mxfile host="app.diagrams.net"><diagram name="Arquitectura Cloud"><mxGraphModel><root><mxCell id="0" /><mxCell id="1" parent="0" /><mxCell id="2" value="Internet" style="rounded=0;whiteSpace=wrap;html=1;" vertex="1" parent="1"><mxGeometry x="40" y="40" width="120" height="60" as="geometry" /></mxCell><mxCell id="3" value="Route 53 (DNS)" style="rounded=0;whiteSpace=wrap;html=1;" vertex="1" parent="1"><mxGeometry x="200" y="40" width="140" height="60" as="geometry" /></mxCell><mxCell id="4" value="Elastic Load Balancer" style="rounded=0;whiteSpace=wrap;html=1;" vertex="1" parent="1"><mxGeometry x="380" y="40" width="180" height="60" as="geometry" /></mxCell><mxCell id="5" value="Subred Pública (EC2 Web)" style="rounded=0;whiteSpace=wrap;html=1;" vertex="1" parent="1"><mxGeometry x="380" y="140" width="200" height="80" as="geometry" /></mxCell><mxCell id="6" value="Subred Privada (EC2 App)" style="rounded=0;whiteSpace=wrap;html=1;" vertex="1" parent="1"><mxGeometry x="380" y="260" width="200" height="80" as="geometry" /></mxCell><mxCell id="7" value="Base de Datos (RDS)" style="rounded=0;whiteSpace=wrap;html=1;" vertex="1" parent="1"><mxGeometry x="640" y="260" width="160" height="80" as="geometry" /></mxCell><mxCell id="8" value="VPC" style="rounded=0;whiteSpace=wrap;html=1;" vertex="1" parent="1"><mxGeometry x="360" y="120" width="480" height="240" as="geometry" /></mxCell><mxCell id="9" value="VPN Gateway" style="rounded=0;whiteSpace=wrap;html=1;" vertex="1" parent="1"><mxGeometry x="40" y="260" width="160" height="80" as="geometry" /></mxCell><mxCell id="10" value="CloudWatch (Monitoreo)" style="rounded=0;whiteSpace=wrap;html=1;" vertex="1" parent="1"><mxGeometry x="640" y="40" width="160" height="60" as="geometry" /></mxCell><mxCell id="11" value="KMS (Cifrado)" style="rounded=0;whiteSpace=wrap;html=1;" vertex="1" parent="1"><mxGeometry x="640" y="140" width="160" height="60" as="geometry" /></mxCell><mxCell id="12" value="IAM (Gestión de Acceso)" style="rounded=0;whiteSpace=wrap;html=1;" vertex="1" parent="1"><mxGeometry x="200" y="140" width="160" height="60" as="geometry" /></mxCell></root></mxGraphModel></diagram></mxfile>